<svg xmlns="http://www.w3.org/2000/svg" xmlns:xlink="http://www.w3.org/1999/xlink" viewBox="0 0 404.33 271.8"><defs><style>.a{fill:none;stroke:#d1d3d4;stroke-miterlimit:10;stroke-width:2px;}.b{fill:#0597f2;}.c{fill:#ccc;}.d{fill:#3375a7;}.e{fill:#e19b75;}.f{fill:url(#a);}.g{fill:url(#b);}.h{fill:url(#c);}.i{fill:url(#d);}.j{fill:#fff;}.k{fill:#be7c5e;}.l{fill:#510b98;}.m{fill:#8967f2;}.n{fill:#1100d4;}.o{fill:#2e31d8;}.p{fill:#ed1c24;}</style><linearGradient id="a" x1="135.42" y1="310.86" x2="166.75" y2="238.47" gradientUnits="userSpaceOnUse"><stop offset="0.26" stop-color="#231f20" stop-opacity="0"/><stop offset="0.82" stop-color="#121010" stop-opacity="0.15"/><stop offset="0.91" stop-opacity="0.3"/></linearGradient><linearGradient id="b" x1="374.79" y1="320.27" x2="406.11" y2="247.89" gradientTransform="matrix(-1, 0, 0, 1, 741.89, 0)" gradientUnits="userSpaceOnUse"><stop offset="0.15" stop-color="#231f20" stop-opacity="0"/><stop offset="0.87" stop-color="#121010" stop-opacity="0.15"/><stop offset="0.99" stop-opacity="0.3"/></linearGradient><linearGradient id="c" x1="344.02" y1="199.79" x2="375.35" y2="127.41" gradientTransform="matrix(1, 0.01, 0.01, -1, -27.64, 400.76)" gradientUnits="userSpaceOnUse"><stop offset="0.21" stop-color="#231f20" stop-opacity="0"/><stop offset="0.78" stop-color="#121010" stop-opacity="0.15"/><stop offset="0.88" stop-opacity="0.3"/></linearGradient><linearGradient id="d" x1="236.37" y1="212.39" x2="267.7" y2="140.01" gradientTransform="translate(423.81 400.76) rotate(179.7)" gradientUnits="userSpaceOnUse"><stop offset="0.17" stop-color="#231f20" stop-opacity="0"/><stop offset="0.7" stop-color="#121010" stop-opacity="0.15"/><stop offset="0.79" stop-opacity="0.3"/></linearGradient></defs><title>ICON</title><rect class="a" x="206.49" y="161.26" width="153.47" height="222.08" transform="translate(-147.04 41.69) rotate(-30)"/><rect class="b" x="192.15" y="161.43" width="64.34" height="17.7" transform="translate(-103.92 -1.43) rotate(-30)"/><rect class="c" x="182.28" y="210.81" width="110.4" height="4.65" transform="matrix(0.87, -0.5, 0.5, 0.87, -123.59, 10.89)"/><rect class="c" x="186.64" y="216.02" width="129.43" height="4.65" transform="matrix(0.87, -0.5, 0.5, 0.87, -124.33, 18.52)"/><rect class="c" x="193.42" y="229.58" width="115.86" height="4.65" transform="translate(-131.12 20.34) rotate(-30)"/><rect class="c" x="175.66" y="197.01" width="129.3" height="4.65" transform="matrix(0.87, -0.5, 0.5, 0.87, -116.31, 10.46)"/><rect class="d" x="198.52" y="165.28" width="48.14" height="2.67" rx="1.33" transform="translate(-102.32 -2.79) rotate(-30)"/><path class="d" d="M245.31,160.42,206.1,183.06a1.43,1.43,0,0,1-1.94-.5h0a1.43,1.43,0,0,1,.51-2L243.88,158a1.43,1.43,0,0,1,1.94.5h0A1.43,1.43,0,0,1,245.31,160.42Z" transform="translate(-48.84 -136.4)"/><rect class="d" x="202.94" y="173.03" width="48.14" height="2.67" rx="1.33" transform="translate(-105.61 0.46) rotate(-30)"/><path class="e" d="M318.63,321.12c-2.82,6.74-10.22,1.16-10.22,1.16-1.94,15.44-9.2,12.41-18.05,11.6-2.17,3-9.41,11.49-21.77,6.69-2.32,8.5-14.14,2.59-14.14,2.59l-12.21-7.79-75-57.76,25.63-59.93c4,1.2,27,6.92,53.12,6.07l72.24,61,1.44,24S324.43,311.24,318.63,321.12Z" transform="translate(-48.84 -136.4)"/><path class="f" d="M174.79,261l-33.14,77.51c-.07,0-7.63-3.11-15.19-6.21s-15.09-6.22-15.12-6.22L145,246.76Z" transform="translate(-48.84 -136.4)"/><path class="g" d="M327.73,270.43l33.14,77.51c.07,0,7.63-3.11,15.19-6.21s15.09-6.22,15.12-6.22l-33.62-79.33Z" transform="translate(-48.84 -136.4)"/><path class="h" d="M356.54,252.85l-32.73-77.68c-.07,0-7.65,3.07-15.22,6.13s-15.13,6.14-15.16,6.14l33.2,79.5Z" transform="translate(-48.84 -136.4)"/><path class="i" d="M147.22,239.68c5.55-13.17,27.39-65,32.73-77.68.07,0,7.64,3.06,15.22,6.12s15.12,6.14,15.15,6.14l-33.2,79.51Z" transform="translate(-48.84 -136.4)"/><path class="j" d="M194,215.13l-33.14,77.51c-.07,0-7.63-3.11-15.19-6.21s-15.09-6.22-15.12-6.22l33.62-79.33Z" transform="translate(-48.84 -136.4)"/><path class="k" d="M246.76,332.08c-15.43,17.73-20.55,3.3-19.22.09-7,8.64-20-.11-17.08-9.19-7.66,6.6-19.37-5.79-13.18-11.72-9,3.18-15.28-5.74-13-11.62l4.86-4.85c16.45-20.57,23.43,3.38,20.17,5.16,5.43-2.9,13,2.92,12.61,11.3,10.07-8.95,19.47,8,14.7,12.16C243.12,318.86,249.42,328.56,246.76,332.08Z" transform="translate(-48.84 -136.4)"/><path class="k" d="M336.94,291.75l-17.25,16.94c0-.66-15.8-22.9-22.77-26.51-27.61,0-35.68-33.47-35.68-33.47s-1.66-.77-11.82.33c-1.67,4.13-17,29.61-28.83,13.81C219.44,234,246,223.75,246,223.75s10.27-9.56,34.57-2.1c8.56,3.59,31,9.72,31.05,9.72Z" transform="translate(-48.84 -136.4)"/><path class="l" d="M164.14,200.88l-41,96.83-55.83-24.2c-.41-6.47-1.6-14.45-5.66-20.1C30.15,217,67.21,205.3,63,183.3c-2.12-10.13-10-17.14-9.16-30.24Z" transform="translate(-48.84 -136.4)"/><path class="m" d="M453.16,279.15l-72.42,33.64-39.63-93,100-46.45c.92,8.34,5.57,15.49,7.68,20.69,8.13,20.09-15.5,28.93-12.37,52.14C438.57,262.28,449.39,263.47,453.16,279.15Z" transform="translate(-48.84 -136.4)"/><polygon class="j" points="325.2 160.48 295.56 172.96 262.75 94.75 292.25 83.15 325.2 160.48"/><path class="n" d="M355.2,348a28,28,0,0,0,3.72-19.8c-.15-.85-1.39-.59-1.43.19A18.7,18.7,0,0,0,359,337c1,2.36,2.71,5.35,5.23,6.34,2.7,1.07,4.16-1.26,4.22-3.67a19.73,19.73,0,0,0-2.16-9.13l-.82,1.07c1.61.58,2.26,2.49,3.91,3.12a2.38,2.38,0,0,0,3.13-1c.67-1.34.16-3.26-.17-4.64a19.22,19.22,0,0,0-2.12-5.26c-.4-.69-1.65-.22-1.34.57a6.29,6.29,0,0,0,1.92,2.66c.33.26.94.32,1.15-.15a26.79,26.79,0,0,0,1.08-19.79.73.73,0,0,0-1.4,0,22.82,22.82,0,0,0-.82,8.81,16,16,0,0,0,2.25,7.24c3.25,4.8,8.84,2.18,13.47,3.59l-.44-1.07a26.31,26.31,0,0,1-6.38,6l1,1a6.39,6.39,0,0,0,1.08-3.24c.06-.94-1.4-.94-1.46,0a4.93,4.93,0,0,1-.88,2.5.74.74,0,0,0,1,1,28.64,28.64,0,0,0,6.9-6.55.74.74,0,0,0-.43-1.08c-4-1.23-9.8,1.16-12.6-2.92a14.76,14.76,0,0,1-2.09-6.95,21.68,21.68,0,0,1,.8-8h-1.4a25.39,25.39,0,0,1-.94,18.67l1.15-.15a4.89,4.89,0,0,1-1.55-2l-1.33.56a15.65,15.65,0,0,1,2.38,7.73c-.06,2.25-2.31.54-3-.27a5.85,5.85,0,0,0-2.44-1.86c-.65-.23-1.09.55-.83,1.07a18.55,18.55,0,0,1,1.93,7.1c.05,1,.25,2.65-.54,3.42-1,1-2.55-.2-3.29-1A16.87,16.87,0,0,1,359,328.37l-1.43.2a26.52,26.52,0,0,1-3.58,18.68c-.49.8.77,1.53,1.26.73Z" transform="translate(-48.84 -136.4)"/><path class="o" d="M277.43,369.07l4.24-2.48c.11,1.6.18,2.91.19,3.93q1.33.71,12.87,8a16.18,16.18,0,0,1,2.52,1.66l-4.31,2.52a10.52,10.52,0,0,1-2.56-1.54l-12.27,7.17-.71-18.07A3.92,3.92,0,0,1,277.43,369.07Zm4.94,13,4.93-2.88,0-.07c-2.53-1.69-4.27-2.78-5.23-3.29Q281.92,376,282.37,382.09Z" transform="translate(-48.84 -136.4)"/><path class="o" d="M294.86,364.22l2.33-1.36q8.43-4.94,8.75-4.38c.5-.29,1.36-.09,2.57.61a11.84,11.84,0,0,1,2.95,3.79q2.79,4.78,2,6.5-.07,1.42-6.32,5.07l-8.71,5.09-2-3.36,9.26-5.41c2.23-1.31,3.23-2.16,3-2.57.18-.23,0-.86-.55-1.89l-1-1.71c-.65-1.12-1.36-1.66-2.13-1.61a17.89,17.89,0,0,0-3.21,1.59l-5,2.92Z" transform="translate(-48.84 -136.4)"/><rect class="p" x="308.72" y="351.56" width="16.6" height="3.57" transform="translate(-183.79 71.76) rotate(-30.29)"/><polygon class="o" points="263.11 224.72 276.82 216.71 278.51 219.59 268.71 225.32 269.75 227.1 280.09 221.05 281.9 224.14 267.64 232.47 263.11 224.72"/></svg>